<svg width="32" height="32" viewBox="0 0 32 32" fill="none" xmlns="http://www.w3.org/2000/svg">
<rect width="32" height="32" rx="4" fill="white"/>
<g clip-path="url(#clip0_1000_138)">
<path d="M28.4986 8.43536C27.5812 8.84175 26.6082 9.1085 25.6119 9.22675C26.6497 8.60474 27.4465 7.61976 27.8217 6.44617C26.8352 7.03161 25.7558 7.44409 24.6303 7.66579C23.7134 6.68904 22.4073 6.07861 20.9616 6.07861C18.186 6.07861 15.9355 8.32895 15.9355 11.1045C15.9355 11.4984 15.98 11.882 16.0657 12.2499C11.8886 12.0402 8.18528 10.0394 5.70634 6.99861C5.2738 7.74091 5.02595 8.60435 5.02595 9.52531C5.02595 11.269 5.91332 12.8073 7.26184 13.7087C6.4637 13.6837 5.68313 13.4681 4.98528 13.08C4.985 13.101 4.985 13.1221 4.985 13.1432C4.985 15.5783 6.71744 17.6097 9.01657 18.0714C8.27647 18.2727 7.50014 18.3022 6.74691 18.1576C7.38643 20.1543 9.2426 21.6073 11.4418 21.648C9.72174 22.9959 7.55457 23.7995 5.19992 23.7995C4.79418 23.7995 4.39418 23.7756 4.00098 23.7292C6.22519 25.1553 8.86701 25.9873 11.7053 25.9873C20.95 25.9873 26.0052 18.3289 26.0052 11.6873C26.0052 11.4693 26.0004 11.2526 25.9906 11.0371C26.9746 10.3258 27.8239 9.44475 28.4986 8.43536Z" fill="#55ACEE"/>
</g>
<defs>
<clipPath id="clip0_1000_138">
<rect width="24.5" height="20" fill="white" transform="translate(4 6)"/>
</clipPath>
</defs>
</svg>
